
<svg id="wave" style="transform:rotate(0deg); transition: 0.3s" viewBox="0 0 1440 170" version="1.1" xmlns="http://www.w3.org/2000/svg"><defs><linearGradient id="sw-gradient-0" x1="0" x2="0" y1="1" y2="0"><stop stop-color="rgba(243, 106, 62, 1)" offset="0%"></stop><stop stop-color="rgba(255, 179, 11, 1)" offset="100%"></stop></linearGradient></defs><path style="transform:translate(0, 0px); opacity:1" fill="url(#sw-gradient-0)" d="M0,0L80,8.5C160,17,320,34,480,51C640,68,800,85,960,85C1120,85,1280,68,1440,53.8C1600,40,1760,28,1920,36.8C2080,45,2240,74,2400,79.3C2560,85,2720,68,2880,59.5C3040,51,3200,51,3360,45.3C3520,40,3680,28,3840,25.5C4000,23,4160,28,4320,39.7C4480,51,4640,68,4800,76.5C4960,85,5120,85,5280,93.5C5440,102,5600,119,5760,124.7C5920,130,6080,125,6240,121.8C6400,119,6560,119,6720,119C6880,119,7040,119,7200,107.7C7360,96,7520,74,7680,73.7C7840,74,8000,96,8160,87.8C8320,79,8480,40,8640,42.5C8800,45,8960,91,9120,116.2C9280,142,9440,147,9600,133.2C9760,119,9920,85,10080,73.7C10240,62,10400,74,10560,70.8C10720,68,10880,51,11040,45.3C11200,40,11360,45,11440,48.2L11520,51L11520,170L11440,170C11360,170,11200,170,11040,170C10880,170,10720,170,10560,170C10400,170,10240,170,10080,170C9920,170,9760,170,9600,170C9440,170,9280,170,9120,170C8960,170,8800,170,8640,170C8480,170,8320,170,8160,170C8000,170,7840,170,7680,170C7520,170,7360,170,7200,170C7040,170,6880,170,6720,170C6560,170,6400,170,6240,170C6080,170,5920,170,5760,170C5600,170,5440,170,5280,170C5120,170,4960,170,4800,170C4640,170,4480,170,4320,170C4160,170,4000,170,3840,170C3680,170,3520,170,3360,170C3200,170,3040,170,2880,170C2720,170,2560,170,2400,170C2240,170,2080,170,1920,170C1760,170,1600,170,1440,170C1280,170,1120,170,960,170C800,170,640,170,480,170C320,170,160,170,80,170L0,170Z"></path></svg>